<?xml version="1.0" encoding="UTF-8" ?>
<!DOCTYPE svg PUBLIC "-//W3C//DTD SVG 1.1//EN" "http://www.w3.org/Graphics/SVG/1.1/DTD/svg11.dtd">
<svg width="716pt" height="348pt" viewBox="0 0 716 348" version="1.1" xmlns="http://www.w3.org/2000/svg">
<g id="#19415894">
<path fill="#194158" opacity="0.58" d=" M 115.81 10.90 C 124.16 7.80 133.00 5.45 141.99 6.27 C 150.58 5.48 158.91 7.81 167.11 9.97 C 168.94 10.60 170.42 11.89 171.98 12.97 C 163.10 9.44 153.57 7.44 144.04 6.77 C 134.39 6.03 125.22 9.51 115.81 10.90 Z" />
</g>
<g id="#0a79aeff">
<path fill="#0a79ae" opacity="1.00" d=" M 115.81 10.90 C 125.22 9.51 134.39 6.03 144.04 6.77 C 153.57 7.44 163.10 9.44 171.98 12.97 C 177.26 15.78 182.31 19.20 186.63 23.36 C 189.09 26.23 191.56 29.10 194.12 31.88 C 199.27 38.44 202.60 46.27 205.03 54.20 C 237.37 54.19 269.71 54.21 302.06 54.20 C 308.44 54.04 314.39 57.96 317.66 63.30 C 318.44 64.57 318.86 66.04 318.80 67.54 C 318.79 69.21 318.81 70.88 318.86 72.55 C 319.03 78.95 313.62 83.87 308.23 86.38 C 303.96 86.42 299.62 86.21 295.47 87.40 C 294.60 97.27 294.93 107.21 295.58 117.08 C 295.54 119.53 295.31 122.03 294.39 124.32 C 291.43 125.54 288.16 125.46 285.02 125.51 C 273.71 125.35 262.40 125.52 251.09 125.36 L 250.38 125.35 C 250.30 119.06 250.10 112.76 250.43 106.48 C 257.00 104.58 263.97 106.52 270.55 105.15 C 270.78 99.24 270.51 93.32 270.63 87.40 C 248.58 87.37 226.53 87.52 204.49 87.33 C 202.01 95.24 199.05 103.20 193.51 109.52 C 188.67 116.60 183.10 123.63 174.84 126.86 C 158.18 137.88 136.24 139.06 117.84 131.91 C 112.68 130.22 108.44 126.75 103.66 124.31 C 98.91 121.23 94.83 117.15 91.29 112.75 C 86.91 105.90 82.23 99.05 79.97 91.13 C 78.18 82.75 76.38 74.14 77.50 65.54 C 78.15 60.61 78.96 55.71 79.77 50.81 C 82.46 43.87 86.14 37.32 90.04 30.98 C 94.48 26.09 99.20 21.35 104.71 17.65 C 108.29 15.22 111.65 12.32 115.81 10.90 M 114.86 49.87 C 111.67 53.30 109.67 57.72 109.13 62.36 C 107.39 70.12 108.07 78.24 110.26 85.83 C 115.13 94.83 123.28 102.28 133.26 105.08 C 142.66 106.40 153.15 106.10 160.96 100.00 L 161.80 100.36 L 162.70 99.77 L 162.71 98.85 C 168.18 95.30 170.96 89.18 173.77 83.55 C 178.78 72.05 175.58 58.49 168.43 48.64 C 161.86 41.66 152.61 37.07 143.03 36.43 C 132.01 35.93 122.42 42.53 114.86 49.87 M 270.79 87.10 C 270.66 93.22 270.42 99.37 271.35 105.45 C 272.61 99.41 272.07 93.23 271.96 87.12 L 270.79 87.10 Z" />
</g>
<g id="#2449609a">
<path fill="#244960" opacity="0.60" d=" M 79.97 91.13 C 74.36 78.55 75.04 63.57 79.77 50.81 C 78.96 55.71 78.15 60.61 77.50 65.54 C 76.38 74.14 78.18 82.75 79.97 91.13 Z" />
</g>
<g id="#0a78acff">
<path fill="#0a78ac" opacity="1.00" d=" M 358.11 56.22 C 376.53 56.15 394.95 56.25 413.37 56.18 C 413.39 61.70 413.44 67.22 413.51 72.74 C 401.52 72.65 389.53 72.70 377.55 72.69 C 377.42 79.29 377.61 85.89 377.53 92.49 C 387.39 92.73 397.34 91.99 407.16 92.86 C 409.13 98.23 408.39 104.21 407.69 109.77 C 397.64 110.35 387.57 110.00 377.51 110.11 C 377.55 117.26 377.51 124.41 377.53 131.56 C 389.31 131.48 401.10 131.46 412.88 131.60 C 412.86 137.07 413.02 142.54 412.71 148.01 C 405.17 147.11 397.57 147.75 390.00 147.58 C 379.44 147.83 368.83 147.05 358.29 148.00 C 357.87 117.42 358.22 86.81 358.11 56.22 Z" />
<path fill="#0a78ac" opacity="1.00" d=" M 545.20 89.29 C 548.80 84.15 555.16 81.56 561.01 79.80 C 569.97 78.39 580.40 78.95 587.10 85.88 C 593.72 91.06 597.08 99.71 596.67 108.00 C 596.33 111.85 597.71 116.36 594.80 119.49 C 581.60 119.48 568.41 119.48 555.22 119.49 C 555.27 125.39 558.99 131.21 564.78 132.89 C 572.53 136.21 581.17 133.08 587.90 128.87 C 590.12 132.33 592.84 135.47 594.79 139.10 C 594.72 139.43 594.58 140.08 594.51 140.40 C 586.48 147.14 575.52 150.06 565.16 149.19 C 559.55 148.22 553.87 146.81 548.84 144.10 C 544.34 139.82 540.25 134.81 538.21 128.86 C 533.77 117.90 535.41 105.24 540.80 94.93 C 541.40 93.84 542.08 92.75 543.09 91.98 C 544.07 91.34 544.80 90.40 545.20 89.29 M 553.50 106.37 C 562.92 106.50 572.35 106.33 581.78 106.37 C 581.32 102.27 580.22 97.87 576.85 95.15 C 573.52 91.78 568.33 91.90 564.04 92.80 C 558.03 94.61 554.61 100.52 553.50 106.37 Z" />
</g>
<g id="#0a78adff">
<path fill="#0a78ad" opacity="1.00" d=" M 513.21 56.23 C 520.92 56.15 528.63 56.13 536.34 56.25 C 531.93 60.93 528.69 66.66 524.00 71.04 C 523.70 71.47 523.09 72.32 522.78 72.74 C 519.39 77.59 515.62 82.23 511.57 86.55 C 507.65 90.08 505.67 95.12 502.17 99.01 C 507.70 107.31 513.80 115.22 519.70 123.25 C 527.07 130.35 530.03 140.64 537.50 147.68 C 530.14 147.57 522.76 147.32 515.41 147.92 C 508.55 141.95 505.67 133.03 499.62 126.41 C 494.00 120.05 489.18 113.00 484.89 105.69 C 484.53 119.61 484.91 133.55 484.59 147.48 C 478.82 146.93 473.02 146.90 467.24 146.98 C 467.01 119.25 466.89 91.52 466.53 63.80 C 465.99 91.81 465.70 119.84 465.72 147.86 C 465.59 117.51 465.29 87.17 465.24 56.82 C 471.41 56.85 477.58 56.83 483.76 56.82 C 483.82 62.22 483.58 67.63 484.12 73.00 C 484.55 80.91 484.21 88.85 484.60 96.76 C 486.19 94.51 487.29 91.96 488.79 89.65 C 497.48 78.93 505.24 67.49 513.21 56.23 Z" />
</g>
<g id="#054f7be7">
<path fill="#054f7b" opacity="0.91" d=" M 465.72 147.86 C 465.70 119.84 465.99 91.81 466.53 63.80 C 466.89 91.52 467.01 119.25 467.24 146.98 C 473.02 146.90 478.82 146.93 484.59 147.48 C 478.31 148.07 472.01 147.73 465.72 147.86 Z" />
</g>
<g id="#25486087">
<path fill="#254860" opacity="0.53" d=" M 318.80 67.54 C 320.82 67.56 320.87 72.49 318.86 72.55 C 318.81 70.88 318.79 69.21 318.80 67.54 Z" />
</g>
<g id="#10384f9d">
<path fill="#10384f" opacity="0.62" d=" M 522.78 72.74 C 523.09 72.32 523.70 71.47 524.00 71.04 L 524.33 71.89 L 523.70 72.77 L 522.78 72.74 Z" />
</g>
<g id="#203e5270">
<path fill="#203e52" opacity="0.44" d=" M 597.13 81.01 C 601.60 79.54 606.36 79.99 611.00 79.90 C 613.91 79.85 616.86 79.98 619.67 80.81 C 612.18 81.35 604.63 81.34 597.13 81.01 Z" />
</g>
<g id="#0a79acff">
<path fill="#0a79ac" opacity="1.00" d=" M 646.31 91.53 C 646.97 87.72 648.26 84.07 649.66 80.47 C 656.22 80.58 662.79 80.46 669.36 80.57 C 666.49 88.42 664.76 96.66 661.21 104.26 C 657.54 111.96 655.36 120.25 651.93 128.05 C 647.79 137.94 645.26 148.38 641.23 158.31 C 639.27 164.05 634.43 168.10 629.93 171.87 C 623.32 177.18 614.46 177.80 606.33 177.20 C 606.05 172.26 606.21 167.31 606.03 162.37 C 610.65 162.41 615.74 161.56 619.16 158.18 C 622.19 155.49 623.82 151.65 625.09 147.89 C 626.49 144.46 623.93 141.20 622.86 138.05 C 619.43 129.32 614.78 121.14 611.55 112.33 C 610.07 108.22 607.61 104.52 606.52 100.27 C 605.04 94.29 602.00 88.89 599.30 83.41 C 600.10 81.73 602.14 81.35 603.83 81.34 C 608.98 81.71 614.21 82.00 619.34 81.13 C 620.82 85.10 622.61 88.93 623.98 92.94 C 625.74 97.81 626.22 103.04 628.21 107.84 C 630.68 114.21 632.24 120.94 635.25 127.09 C 637.29 122.69 638.41 117.96 639.74 113.32 C 641.71 105.99 644.87 99.01 646.31 91.53 Z" />
</g>
<g id="#255771b2">
<path fill="#255771" opacity="0.70" d=" M 295.47 87.40 C 299.62 86.21 303.96 86.42 308.23 86.38 C 304.59 87.83 300.63 87.63 296.80 87.69 C 296.64 99.07 296.96 110.46 296.65 121.84 C 296.76 124.40 294.41 126.09 292.01 126.00 C 280.67 126.08 269.32 125.91 257.97 126.05 C 255.66 126.10 253.34 125.93 251.09 125.36 C 262.40 125.52 273.71 125.35 285.02 125.51 C 288.16 125.46 291.43 125.54 294.39 124.32 C 295.31 122.03 295.54 119.53 295.58 117.08 C 295.86 107.19 296.01 97.29 295.47 87.40 Z" />
</g>
<g id="#054b75d8">
<path fill="#054b75" opacity="0.85" d=" M 270.79 87.10 L 271.96 87.12 C 272.07 93.23 272.61 99.41 271.35 105.45 C 270.42 99.37 270.66 93.22 270.79 87.10 Z" />
</g>
<g id="#0c638eff">
<path fill="#0c638e" opacity="1.00" d=" M 295.58 117.08 C 294.93 107.21 294.60 97.27 295.47 87.40 C 296.01 97.29 295.86 107.19 295.58 117.08 Z" />
</g>
<g id="#103b4e98">
<path fill="#103b4e" opacity="0.60" d=" M 543.09 91.98 C 541.74 90.82 543.75 88.33 545.20 89.29 C 544.80 90.40 544.07 91.34 543.09 91.98 Z" />
</g>
<g id="#0ea474ff">
<path fill="#0ea474" opacity="1.00" d=" M 10.47 98.47 C 12.39 97.23 14.71 96.98 16.94 97.02 C 25.30 97.07 33.66 97.09 42.02 97.05 C 51.60 96.40 60.41 101.56 67.54 107.43 C 75.44 119.04 77.01 133.41 81.55 146.43 C 151.05 146.42 220.56 146.43 290.06 146.42 C 294.53 145.94 297.80 150.08 298.91 153.99 C 300.44 159.69 297.68 165.27 296.61 170.80 C 294.38 181.53 290.05 191.71 288.32 202.55 C 286.52 210.26 284.33 217.88 282.22 225.51 C 280.74 230.97 278.71 236.56 274.63 240.65 C 269.89 244.97 264.79 249.44 258.21 250.50 C 209.03 250.04 159.83 250.42 110.64 250.22 L 110.89 251.01 C 111.92 254.27 113.19 257.77 115.99 259.92 C 119.94 262.19 124.26 264.38 128.96 264.18 C 169.65 264.32 210.35 264.23 251.05 264.31 C 254.17 264.28 257.66 264.66 259.91 267.09 C 263.40 270.07 263.94 275.73 261.41 279.46 C 258.76 282.25 254.90 283.90 251.03 283.67 C 210.02 283.65 169.01 283.64 128.00 283.68 C 122.12 283.94 116.53 281.77 111.09 279.83 C 100.04 273.62 93.12 261.93 90.49 249.77 C 86.73 230.24 79.30 211.69 74.39 192.45 C 72.95 186.48 70.30 180.85 69.49 174.74 C 69.07 171.96 68.50 169.20 67.53 166.56 C 63.13 153.34 59.73 139.80 55.52 126.52 C 53.49 122.19 50.23 117.38 45.11 116.71 C 35.15 116.47 25.17 116.83 15.21 116.59 C 9.88 116.19 7.52 110.50 6.57 105.98 C 7.23 103.23 8.47 100.52 10.47 98.47 Z" />
</g>
<g id="#15394c9a">
<path fill="#15394c" opacity="0.60" d=" M 160.96 100.00 C 161.40 99.71 162.27 99.14 162.71 98.85 L 162.70 99.77 L 161.80 100.36 L 160.96 100.00 Z" />
</g>
<g id="#28404d6d">
<path fill="#28404d" opacity="0.43" d=" M 419.35 101.44 C 430.15 101.14 441.03 101.04 451.80 101.53 L 451.61 101.87 C 441.13 102.45 430.63 101.77 420.15 102.30 C 419.79 106.85 419.78 111.41 420.14 115.96 C 430.69 116.72 441.28 115.86 451.84 116.44 L 451.86 116.44 C 449.01 117.43 445.94 116.95 442.99 117.04 C 435.10 116.89 427.20 117.13 419.31 116.82 C 419.11 111.70 419.09 106.56 419.35 101.44 Z" />
</g>
<g id="#0b78acff">
<path fill="#0b78ac" opacity="1.00" d=" M 420.15 102.30 C 430.63 101.77 441.13 102.45 451.61 101.87 L 452.23 102.34 C 452.44 102.73 452.87 103.52 453.08 103.92 C 452.96 107.94 453.75 112.16 452.53 116.05 L 451.84 116.44 C 441.28 115.86 430.69 116.72 420.14 115.96 C 419.78 111.41 419.79 106.85 420.15 102.30 Z" />
</g>
<g id="#1c262d31">
<path fill="#1c262d" opacity="0.19" d=" M 537.50 147.68 L 538.54 147.73 C 536.14 148.66 533.58 149.06 531.01 148.97 C 525.51 148.86 519.91 149.36 514.51 148.02 L 515.41 147.92 C 522.76 147.32 530.14 147.57 537.50 147.68 Z" />
</g>
<g id="#1b262c2e">
<path fill="#1b262c" opacity="0.18" d=" M 358.29 148.00 C 368.83 147.05 379.44 147.83 390.00 147.58 C 397.57 147.75 405.17 147.11 412.71 148.01 L 413.61 148.13 C 410.44 148.72 407.22 148.96 404.00 148.91 C 394.00 148.79 384.00 148.84 374.00 148.84 C 368.46 148.82 362.86 149.26 357.40 148.12 L 358.29 148.00 Z" />
</g>
<g id="#0c976cff">
<path fill="#0c976c" opacity="1.00" d=" M 539.82 174.41 C 545.42 174.44 551.03 174.38 556.64 174.43 C 556.80 191.72 556.28 209.03 556.77 226.32 C 559.27 223.97 561.96 221.77 564.03 219.00 C 568.38 212.79 572.00 205.50 578.45 201.21 C 584.63 201.49 590.85 201.84 597.01 201.13 C 593.55 205.27 589.56 209.00 586.68 213.61 C 582.84 219.84 576.87 224.26 572.42 230.01 C 576.42 235.78 581.13 241.01 585.34 246.61 C 588.71 253.20 593.02 259.24 597.86 264.83 C 591.26 264.85 584.66 264.88 578.07 264.85 C 575.00 261.22 571.94 257.57 569.44 253.51 C 567.02 250.18 565.66 246.18 562.93 243.07 C 560.81 240.70 558.86 238.19 556.78 235.79 C 556.37 245.46 556.69 255.15 556.69 264.82 C 551.19 264.86 545.70 264.83 540.21 264.88 C 540.28 245.92 540.68 226.95 539.76 208.01 C 539.78 196.81 539.66 185.61 539.82 174.41 Z" />
</g>
<g id="#20584499">
<path fill="#205844" opacity="0.60" d=" M 328.04 178.00 C 335.02 177.99 342.00 177.98 348.99 178.00 C 350.22 180.65 351.31 183.37 352.08 186.19 C 350.75 183.67 349.31 181.21 347.93 178.72 C 341.54 178.45 335.15 178.46 328.77 178.78 C 328.02 207.38 325.17 235.86 323.50 264.41 C 328.13 264.55 332.77 264.57 337.41 264.53 C 339.84 250.37 339.39 235.89 341.57 221.68 C 341.70 229.44 340.80 237.15 340.32 244.89 C 339.44 251.57 339.76 258.34 338.63 265.00 C 333.11 265.02 327.59 265.04 322.07 264.99 C 323.31 254.61 323.54 244.15 324.67 233.76 C 325.29 221.15 327.06 208.62 327.08 195.98 C 327.27 189.98 327.92 184.00 328.04 178.00 Z" />
</g>
<g id="#0d9c70ff">
<path fill="#0d9c70" opacity="1.00" d=" M 388.96 178.31 C 395.73 178.12 402.51 178.18 409.29 178.30 C 410.71 202.24 413.26 226.12 414.97 250.04 C 415.58 254.96 415.91 259.91 415.82 264.88 C 410.59 264.87 405.37 264.82 400.14 264.90 C 398.62 245.73 397.06 226.55 395.16 207.42 C 392.29 215.75 388.46 223.77 386.45 232.38 C 384.44 238.48 381.45 244.20 379.40 250.30 C 378.45 252.74 377.82 255.41 376.08 257.46 C 371.66 257.73 367.22 257.50 362.79 257.57 C 357.97 245.94 352.63 234.51 348.66 222.54 C 347.11 217.01 345.20 211.58 342.79 206.37 C 342.02 211.44 342.34 216.61 341.57 221.68 C 339.39 235.89 339.84 250.37 337.41 264.53 C 332.77 264.57 328.13 264.55 323.50 264.41 C 325.17 235.86 328.02 207.38 328.77 178.78 C 335.15 178.46 341.54 178.45 347.93 178.72 C 349.31 181.21 350.75 183.67 352.08 186.19 C 354.48 191.51 356.02 197.18 358.49 202.49 C 361.48 208.80 363.53 215.49 366.17 221.95 C 367.67 225.58 368.26 229.49 369.29 233.26 C 372.78 224.79 376.08 216.24 378.79 207.49 C 382.61 197.92 386.11 188.22 388.96 178.31 Z" />
</g>
<g id="#0c966cff">
<path fill="#0c966c" opacity="1.00" d=" M 671.44 184.80 C 676.44 184.71 681.34 183.59 686.34 183.29 C 686.13 189.32 686.23 195.36 686.23 201.39 C 691.67 201.44 697.12 201.47 702.57 201.39 C 702.50 205.81 702.52 210.23 702.65 214.65 C 697.15 214.63 691.66 214.64 686.18 214.61 C 686.29 223.76 686.14 232.91 686.19 242.06 C 686.28 245.12 686.70 248.72 689.26 250.78 C 693.30 253.37 698.32 252.19 702.61 250.92 C 703.03 254.65 703.90 258.30 704.82 261.93 C 698.09 265.06 690.42 268.27 682.92 266.11 C 676.74 264.57 670.78 259.66 670.43 252.91 C 670.17 240.16 670.35 227.40 670.30 214.65 C 666.91 214.63 663.54 214.61 660.16 214.67 C 660.17 210.23 660.16 205.79 660.15 201.36 C 663.62 201.43 667.09 201.42 670.56 201.36 C 670.40 195.82 671.17 190.32 671.44 184.80 Z" />
</g>
<g id="#0c986dff">
<path fill="#0c986d" opacity="1.00" d=" M 433.54 203.66 C 444.32 199.66 456.83 197.13 467.67 202.31 C 472.73 204.26 475.84 209.26 477.15 214.32 C 479.11 221.38 478.11 228.76 478.30 235.99 C 478.46 241.47 477.55 247.16 479.38 252.46 C 481.10 252.73 482.83 252.99 484.57 253.24 C 483.88 257.02 483.53 260.85 483.03 264.66 C 478.50 265.30 473.91 266.47 469.32 265.61 C 466.27 264.27 464.91 260.93 463.44 258.17 C 458.40 262.36 452.61 266.26 445.89 266.82 C 439.38 267.18 432.36 265.18 428.00 260.09 C 423.44 251.97 424.36 241.30 429.83 233.88 C 438.26 225.44 451.21 224.41 462.50 224.83 C 462.69 220.45 461.56 214.92 456.89 213.29 C 448.86 210.37 440.32 214.06 433.71 218.65 C 431.48 214.92 429.56 211.02 427.75 207.07 C 429.63 205.86 431.48 204.56 433.54 203.66 M 443.78 240.71 C 439.10 244.87 443.15 253.16 449.00 253.44 C 454.37 253.55 459.19 250.11 462.17 245.85 C 462.64 242.27 462.38 238.64 462.39 235.04 C 455.88 235.12 448.38 235.40 443.78 240.71 Z" />
</g>
<g id="#18231e2b">
<path fill="#18231e" opacity="0.17" d=" M 492.51 200.51 C 497.85 199.76 503.35 199.37 508.62 200.78 C 503.27 201.54 497.80 201.73 492.51 200.51 Z" />
</g>
<g id="#0c976dff">
<path fill="#0c976d" opacity="1.00" d=" M 514.40 203.49 C 517.62 201.58 521.26 200.43 524.95 199.84 C 527.17 200.06 529.37 200.47 531.61 200.68 C 531.68 205.65 530.58 210.53 530.34 215.49 C 525.38 214.09 519.42 213.68 515.21 217.19 C 511.77 220.09 508.64 224.18 508.89 228.92 C 509.28 240.88 509.19 252.85 509.25 264.81 C 503.92 264.89 498.59 264.87 493.27 264.81 C 493.26 243.66 493.23 222.51 493.26 201.36 C 498.10 201.48 502.95 201.52 507.79 201.31 C 507.46 204.63 507.23 207.97 507.23 211.31 C 509.54 208.64 511.50 205.58 514.40 203.49 Z" />
</g>
<g id="#16221d29">
<path fill="#16221d" opacity="0.16" d=" M 577.53 201.15 C 584.43 199.56 591.67 199.91 598.64 200.83 C 598.23 200.90 597.42 201.05 597.01 201.13 C 590.85 201.84 584.63 201.49 578.45 201.21 L 577.53 201.15 Z" />
</g>
<g id="#0c956cff">
<path fill="#0c956c" opacity="1.00" d=" M 613.94 203.08 C 620.32 200.67 627.18 198.50 634.06 199.94 C 637.89 200.84 641.86 201.71 645.25 203.80 C 650.31 208.52 653.67 215.05 654.43 221.94 C 654.55 226.18 654.36 230.42 654.54 234.66 C 647.22 236.94 639.52 236.03 631.99 236.04 C 626.53 235.96 621.06 236.05 615.62 236.57 C 628.58 237.55 641.60 236.34 654.56 237.34 C 641.45 238.14 628.28 237.52 615.15 237.72 C 616.16 241.65 617.03 245.99 620.12 248.89 C 624.39 252.37 630.23 253.59 635.60 252.45 C 640.02 251.80 643.88 249.48 647.71 247.34 C 649.99 250.43 652.38 253.54 653.88 257.09 C 653.25 259.56 650.24 260.09 648.34 261.33 C 643.07 264.50 637.05 266.17 630.97 266.81 C 622.80 267.36 614.80 264.34 608.08 259.88 C 602.85 254.17 599.29 246.79 598.50 239.06 C 598.48 235.35 598.35 231.64 598.59 227.95 C 599.50 221.98 601.92 216.31 605.25 211.29 C 607.37 207.90 610.10 204.57 613.94 203.08 M 615.01 225.67 C 623.49 225.80 631.97 225.69 640.46 225.75 C 641.35 220.09 638.21 214.12 632.65 212.32 C 624.24 209.54 614.74 216.84 615.01 225.67 Z" />
</g>
<g id="#0b161225">
<path fill="#0b1612" opacity="0.15" d=" M 492.02 202.10 L 493.00 202.09 C 492.94 223.07 493.14 244.04 493.21 265.02 L 491.98 265.00 C 491.79 244.03 492.08 223.07 492.02 202.10 Z" />
</g>
<g id="#037b55fd">
<path fill="#037b55" opacity="1.00" d=" M 631.99 236.04 C 639.52 236.03 647.22 236.94 654.54 234.66 C 654.55 235.33 654.55 236.67 654.56 237.34 C 641.60 236.34 628.58 237.55 615.62 236.57 C 621.06 236.05 626.53 235.96 631.99 236.04 Z" />
</g>
<g id="#007348f6">
<path fill="#007348" opacity="0.96" d=" M 110.64 250.22 C 159.83 250.42 209.03 250.04 258.21 250.50 C 253.18 251.28 248.07 250.88 243.00 250.96 C 198.96 251.00 154.93 250.89 110.89 251.01 L 110.64 250.22 Z" />
</g>
<g id="#f38e02ff">
<path fill="#f38e02" opacity="1.00" d=" M 129.44 294.46 C 136.04 293.42 142.51 296.53 147.56 300.55 C 150.52 306.08 153.49 312.77 151.08 319.05 C 149.88 321.81 148.95 324.75 147.18 327.20 C 142.78 332.28 135.75 335.14 129.05 334.13 C 122.02 332.64 115.59 327.84 112.88 321.07 C 110.65 316.62 110.90 311.35 112.74 306.82 C 115.32 299.89 122.63 296.09 129.44 294.46 Z" />
</g>
<g id="#f28f02ff">
<path fill="#f28f02" opacity="1.00" d=" M 229.34 294.30 C 235.94 293.00 242.45 296.45 247.45 300.49 C 251.00 305.70 252.81 312.29 251.35 318.53 C 250.13 321.49 248.96 324.54 247.15 327.19 C 243.37 331.45 237.71 334.10 232.00 334.05 C 218.98 334.04 207.66 319.14 213.06 306.78 C 215.43 299.77 222.74 296.26 229.34 294.30 Z" />
</g>
</svg>
